<?xml version="1.0" encoding="UTF-8" standalone="no"?>
<!-- Created with Inkscape (http://www.inkscape.org/) -->

<svg
   width="33.866661mm"
   height="33.866669mm"
   viewBox="0 0 33.866661 33.866669"
   version="1.1"
   id="svg1"
   xml:space="preserve"
   xmlns="http://www.w3.org/2000/svg"
   xmlns:svg="http://www.w3.org/2000/svg"><defs
     id="defs1" /><g
     id="layer1"
     transform="translate(-47.035415,-82.364879)"><g
       id="g22"><rect
         style="fill:#000000;fill-opacity:1;stroke-width:0.0714552"
         id="rect17"
         width="33.866665"
         height="33.866665"
         x="47.035416"
         y="82.364868" /><g
         id="g21"><path
           style="fill:#008000;fill-opacity:1;stroke:#008000;stroke-width:0.154817;stroke-linecap:round;stroke-linejoin:round;stroke-opacity:1"
           d="M 62.022182,97.970628 C 61.951829,97.94076 61.832647,97.85078 61.757336,97.77063 l -0.13693,-0.145725 v -2.295194 c 0,-1.262353 -0.0098,-2.295186 -0.02185,-2.295186 -0.01201,0 -0.250082,0.106907 -0.52904,0.237574 -0.607104,0.284372 -0.73526,0.298469 -0.960425,0.105654 -0.254911,-0.218284 -0.236597,-0.303025 0.343761,-1.590508 0.27487,-0.609783 0.678045,-1.543524 0.895945,-2.074985 0.217898,-0.531463 0.437206,-1.007096 0.487347,-1.05697 0.151908,-0.151093 0.363995,-0.224809 0.565541,-0.196567 0.301382,0.04223 0.426861,0.179559 0.635355,0.695375 0.228023,0.564115 1.372116,3.221897 1.523502,3.539167 0.09876,0.206965 0.105934,0.251032 0.06448,0.395957 -0.04789,0.167386 -0.365546,0.499645 -0.477692,0.499645 -0.04398,0 -0.772163,-0.259192 -1.075584,-0.38285 -0.04201,-0.01714 -0.05316,0.427982 -0.0539,2.150533 -7.94e-4,2.028315 -0.0061,2.182802 -0.07937,2.333504 -0.05544,0.114051 -0.126625,0.182787 -0.242724,0.234346 -0.212518,0.09438 -0.511691,0.114914 -0.673573,0.04623 z"
           id="path5" /><path
           style="fill:#008000;fill-opacity:1;stroke:#008000;stroke-width:0.157023;stroke-linecap:round;stroke-linejoin:round;stroke-opacity:1"
           d="m 48.321094,104.06128 c -0.306701,-0.12263 -0.415826,-0.55008 -0.211227,-0.82739 0.222537,-0.30162 1.845688,-2.83108 1.845688,-2.87626 0,-0.0264 -1.230712,-1.933117 -1.590114,-2.463493 -0.130149,-0.192063 -0.255312,-0.411427 -0.278141,-0.487471 -0.04686,-0.156112 0.0033,-0.381547 0.118399,-0.532196 0.154054,-0.20162 0.196058,-0.204972 2.568213,-0.204972 h 2.207366 l 0.139173,0.107711 c 0.178849,0.138417 0.257368,0.31491 0.257284,0.578321 -8.5e-5,0.264494 -0.105729,0.462238 -0.30317,0.567473 -0.143333,0.0764 -0.224414,0.08082 -1.483597,0.08104 -0.732588,1.3e-4 -1.332023,0.0059 -1.332077,0.01283 -2.53e-4,0.03046 0.131437,0.235201 0.615984,0.957757 0.580067,0.865002 0.856783,1.32917 0.856783,1.43716 0,0.04 -0.153146,0.30367 -0.340324,0.58581 -0.187179,0.28214 -0.518573,0.78102 -0.736433,1.10862 -0.21786,0.32762 -0.396105,0.60552 -0.3961,0.6176 4e-6,0.0121 0.594276,0.0246 1.320603,0.0279 1.21382,0.005 1.332028,0.0121 1.462003,0.0819 0.433284,0.23275 0.455487,0.93954 0.03758,1.19632 l -0.147194,0.0905 -2.235383,-0.002 c -1.821164,-0.001 -2.261312,-0.0119 -2.375317,-0.0575 z"
           id="path3" /><path
           style="fill:#f44611;fill-opacity:1;stroke-width:0.22379"
           d="m 66.370749,107.25613 c -0.278577,-0.19512 -0.321236,-0.42392 -0.362842,-1.94622 -0.03646,-1.33378 -0.04826,-1.44608 -0.192154,-1.82839 -0.381216,-1.01282 -0.99229,-1.52938 -2.116417,-1.78907 -0.395645,-0.0914 -0.940666,-0.10505 -4.996654,-0.12519 -4.949003,-0.0246 -4.754256,-0.0107 -4.997114,-0.35681 -0.286502,-0.40835 -0.317714,-1.01453 -0.07657,-1.4872 0.244337,-0.478939 -0.076,-0.449104 5.185437,-0.482921 L 63.4921,99.210269 63.950626,99.0543 c 0.820457,-0.279085 1.353558,-0.720608 1.700924,-1.408739 0.295487,-0.585357 0.352864,-0.922571 0.373354,-2.194275 0.02463,-1.529164 0.108307,-1.726985 0.730432,-1.726985 0.45598,0 2.779866,1.197112 4.742746,2.443149 2.081435,1.321297 4.324287,3.127658 4.640131,3.737102 0.286586,0.552988 0.06425,0.909518 -1.428798,2.291158 -2.052751,1.89958 -5.115184,3.97085 -7.267638,4.91545 -0.594318,0.26082 -0.855213,0.29613 -1.071023,0.14497 z m 5.300686,-5.77017 c 0.06965,-0.0255 0.227044,-0.13459 0.349755,-0.24233 0.6911,-0.60679 0.544407,-1.642729 -0.293634,-2.073611 -0.351925,-0.180946 -0.929421,-0.134572 -1.264518,0.101539 -0.446881,0.314875 -0.634767,0.863002 -0.483071,1.409282 0.06486,0.23358 0.395171,0.64646 0.612336,0.76542 0.263702,0.14445 0.745175,0.16216 1.079132,0.0397 z"
           id="path2" /><path
           style="fill:#008000;fill-opacity:1;stroke:#008000;stroke-width:0.183347;stroke-linecap:round;stroke-linejoin:round;stroke-opacity:1"
           d="m 59.415073,110.04303 c -0.134014,-0.0693 -0.240616,-0.17509 -0.315731,-0.31327 -0.06237,-0.11474 -0.408525,-0.94138 -0.76923,-1.83697 -1.966436,-4.88246 -1.828472,-4.49377 -1.688515,-4.75721 0.131257,-0.24708 0.450056,-0.39924 0.836422,-0.39924 0.468779,0 0.52712,0.0613 0.813822,0.85571 0.133363,0.36951 0.344957,0.99634 0.470208,1.39297 0.125251,0.39662 0.330939,0.99329 0.457086,1.32594 0.126147,0.33265 0.29837,0.79324 0.382718,1.02353 0.08435,0.2303 0.165548,0.45013 0.180444,0.48851 0.01521,0.0392 0.04389,-0.0118 0.06544,-0.11652 0.02109,-0.10247 0.09622,-0.3223 0.166954,-0.48851 0.153292,-0.36022 0.763828,-1.97175 1.25564,-3.3143 0.194437,-0.53076 0.391451,-1.00809 0.437809,-1.06072 0.194717,-0.22107 0.800452,-0.19289 1.063972,0.0495 0.277569,0.25531 0.26149,0.37069 -0.239784,1.72038 -0.677741,1.82482 -1.888582,4.96744 -1.984191,5.14978 -0.187734,0.35803 -0.725668,0.49116 -1.133061,0.28043 z"
           id="path1" /><circle
           style="fill:#008000;fill-opacity:1;stroke:none;stroke-width:0.0581343;stroke-opacity:1"
           id="path6-7"
           cx="78.706902"
           cy="100.39494"
           r="1.2252436" /></g></g></g></svg>
